<svg width="142" height="227" viewBox="0 0 142 227" fill="none" xmlns="http://www.w3.org/2000/svg">
<path d="M124.522 196.325C123.696 197.177 123.549 197.618 123.166 197.882C94.0161 209.644 64.6692 210.392 35.7753 197.3C28.4709 194.012 22.1696 188.901 17.048 182.468C5.95096 168.775 5.1113 150.279 14.8167 135.668C19.8317 128.025 25.9654 121.592 34.7484 118.257C38.5181 120.358 42.1994 122.576 45.9105 124.265C51.9779 126.99 58.2534 127.477 64.4726 124.608C69.1296 122.588 71.7842 119.061 71.3154 115.762C70.7001 111.431 67.4021 108.949 63.5427 108.438C58.1808 107.717 52.7005 107.644 47.3673 107.866C43.9199 108.033 40.3834 109.055 37.0239 109.841C25.2183 97.8245 29.0327 80.9899 45.8949 70.1086C48.1334 71.0568 50.4897 72.0937 52.8167 72.9243C61.5358 75.8037 70.1101 75.4433 77.8928 70.2513C80.8703 68.2566 83.4358 65.5835 82.7321 61.3705C82.1748 58.1886 78.8768 55.7062 74.163 55.1049C66.6798 54.2608 59.5774 56.0975 52.6808 58.6414C50.2934 59.607 47.9061 60.5725 45.6365 61.6267C26.7937 43.761 26.0807 14.3105 47.9526 2.41163C46.3329 1.37668 45.1257 0.283916 44.0651 0.222241C42.7981 0.189475 41.3536 1.12805 40.3217 2.00881C30.9158 10.5832 25.1032 20.7572 26.6543 33.8953C27.7366 43.734 31.4125 52.5782 37.0041 60.8385C37.7987 61.9891 38.5933 63.1396 39.2994 64.4078C39.4172 64.4964 39.3581 64.8202 39.3575 65.5564C38.4433 66.5258 37.47 67.819 36.261 68.9349C21.9304 82.8266 19.9766 94.2475 29.2136 112.618C27.6807 113.674 25.9707 114.966 24.2314 116.051C14.3556 122.798 7.30652 131.673 3.467 143.148C-2.82379 161.802 2.75898 181.105 18.217 194.398C26.6085 201.635 36.2394 206.489 46.8736 209.521C72.6195 216.744 97.8415 215.839 122.424 204.506C123.72 204.009 124.988 203.306 126.285 202.808C126.491 202.78 126.815 202.839 127.787 203.019C125.721 207.725 122.536 211.221 119.469 214.806C116.608 218.361 113.423 221.857 110.179 225.677C113.507 227.63 115.924 226.87 118.135 225.404C120.611 223.584 123.323 221.942 125.211 219.68C130.224 213.509 135.209 207.131 139.722 200.399C143.174 195.078 141.527 191.628 135.723 190.759C123.379 189.019 110.946 187.396 98.5137 185.773C96.4809 185.532 94.5067 185.704 91.8843 185.756C92.7944 189.94 95.3868 190.418 97.773 190.925C106.611 192.42 115.184 194.269 124.522 196.325ZM76.5439 62.2377C69.3783 69.5517 60.3908 70.7061 52.8226 65.5622C60.4265 62.8139 67.5002 60.0348 76.5439 62.2377ZM64.8922 115.715C58.0225 121.41 50.8335 121.156 44.1795 115.043C51.3111 113.412 57.7647 112.192 64.8922 115.715Z" fill="#0129E3"/>
</svg>
