<svg width="122" height="238" viewBox="0 0 122 238" fill="none" xmlns="http://www.w3.org/2000/svg">
<path d="M17.1102 212.681C18.1853 213.183 18.4807 213.542 18.9329 213.653C50.3603 214.247 78.0446 204.481 100.371 181.947C106.023 176.27 110.087 169.248 112.578 161.412C118.063 144.662 112.252 127.082 97.9749 116.893C90.5641 111.54 82.5396 107.717 73.1451 107.734C70.3722 111.041 67.724 114.426 64.8588 117.326C60.162 122.036 54.4729 124.729 47.6392 124.266C42.5682 124.039 38.8305 121.691 38.0919 118.441C37.1226 114.176 39.3186 110.681 42.7422 108.827C47.4946 106.242 52.5885 104.219 57.6501 102.525C60.9307 101.452 64.599 101.145 68.0181 100.682C74.7627 85.2459 65.1962 70.878 45.5624 66.7248C43.8091 68.4089 41.9774 70.2178 40.0996 71.8236C32.9804 77.6227 24.8412 80.3435 15.7187 78.268C12.2257 77.4661 8.87561 75.8835 8.03084 71.6965C7.41688 68.525 9.61294 65.0299 13.8024 62.7873C20.4927 59.3302 27.7831 58.5136 35.1335 58.4311C37.7083 58.4819 40.283 58.5327 42.7793 58.7083C54.0128 35.298 44.1775 7.52921 19.5005 4.21164C20.6446 2.66718 21.3828 1.2158 22.3517 0.779965C23.5237 0.297589 25.2079 0.659386 26.4861 1.11427C38.3312 5.77102 47.3895 13.2036 50.6252 26.0312C53.1223 35.609 52.8417 45.1826 50.5631 54.8938C50.231 56.252 49.8989 57.6103 49.6914 59.0469C49.613 59.1717 49.7837 59.4531 50.0468 60.1407C51.2465 60.7204 52.617 61.5815 54.1444 62.193C72.4866 70.0614 78.3844 80.0349 76.3052 100.492C78.114 100.932 80.172 101.528 82.1838 101.922C93.8165 104.704 103.567 110.482 111.246 119.834C123.775 135.018 125.442 155.044 115.74 172.974C110.481 182.728 103.214 190.697 94.3599 197.322C72.8821 213.251 48.9951 221.398 21.988 219.577C20.5991 219.574 19.1641 219.369 17.7752 219.367C17.5722 219.414 17.2907 219.585 16.4464 220.099C20.055 223.759 24.2772 225.89 28.421 228.145C32.3617 230.447 36.5839 232.578 40.9768 234.99C38.5638 238 36.0353 238.153 33.4467 237.571C30.4843 236.754 27.365 236.187 24.7948 234.746C17.91 230.769 10.9791 226.588 4.36194 221.908C-0.760155 218.167 -0.45134 214.357 4.66095 211.475C15.573 205.448 26.6097 199.498 37.6463 193.549C39.4596 192.599 41.3653 192.055 43.8338 191.169C44.4755 195.403 42.2239 196.773 40.1753 198.098C32.4515 202.647 25.1015 207.43 17.1102 212.681ZM14.1215 70.3002C23.4241 74.5782 32.2324 72.4519 37.4689 64.9475C29.3848 65.0914 21.7852 65.0173 14.1215 70.3002ZM44.0763 116.108C52.5252 118.979 59.151 116.178 63.1877 108.093C55.9435 109.113 49.4791 110.275 44.0763 116.108Z" fill="#0129E3"/>
</svg>
