<svg width="216" height="40" viewBox="0 0 216 40" fill="none" xmlns="http://www.w3.org/2000/svg">
<g clip-path="url(#clip0_43_694)">
<path fill-rule="evenodd" clip-rule="evenodd" d="M13.7254 1.84217C13.3576 2.56389 13.3576 3.50867 13.3576 5.39823V13.3578H5.39822C3.50867 13.3578 2.56389 13.3578 1.84217 13.7256C1.20734 14.049 0.691198 14.5652 0.367732 15.2C0 15.9217 0 16.8665 0 18.7561V20.2846C0 22.1742 0 23.119 0.367732 23.8407C0.691198 24.4755 1.20734 24.9917 1.84217 25.3151C2.56389 25.6828 3.50867 25.6828 5.39823 25.6828H13.3576V33.6425C13.3576 35.532 13.3576 36.4768 13.7254 37.1985C14.0488 37.8334 14.565 38.3495 15.1998 38.673C15.9215 39.0407 16.8663 39.0407 18.7559 39.0407H20.2844C22.174 39.0407 23.1188 39.0407 23.8405 38.673C24.4753 38.3495 24.9915 37.8334 25.3149 37.1985C25.6827 36.4768 25.6827 35.532 25.6827 33.6425V25.6828H33.6425C35.532 25.6828 36.4768 25.6828 37.1985 25.3151C37.8334 24.9917 38.3495 24.4755 38.673 23.8407C39.0407 23.119 39.0407 22.1742 39.0407 20.2846V18.7561C39.0407 16.8665 39.0407 15.9217 38.673 15.2C38.3495 14.5652 37.8334 14.049 37.1985 13.7256C36.4768 13.3578 35.532 13.3578 33.6425 13.3578H25.6827V5.39822C25.6827 3.50867 25.6827 2.56389 25.3149 1.84217C24.9915 1.20734 24.4753 0.691198 23.8405 0.367732C23.1188 0 22.174 0 20.2844 0H18.7559C16.8663 0 15.9215 0 15.1998 0.367732C14.565 0.691198 14.0488 1.20734 13.7254 1.84217Z" fill="url(#paint0_linear_43_694)"/>
<path d="M51.1636 30.945C50.0346 30.945 49.3696 30.2491 49.3696 29.0737V10.6389C49.3696 9.06141 50.344 8.10255 51.9369 8.10255C53.3133 8.10255 54.1021 8.69024 54.6897 10.1749L60.8061 25.1501C60.8203 25.1847 60.854 25.2073 60.8914 25.2073C60.9288 25.2073 60.9625 25.1847 60.9766 25.15L67.0776 10.1749C67.6652 8.7057 68.4695 8.10255 69.8613 8.10255C71.4543 8.10255 72.3977 9.04594 72.3977 10.6389V29.0737C72.3977 30.2491 71.7327 30.945 70.6037 30.945C69.4747 30.945 68.8097 30.2491 68.8097 29.0737V14.9103C68.8097 14.8745 68.7807 14.8455 68.7448 14.8455C68.7186 14.8455 68.6949 14.8613 68.6849 14.8856L62.7782 29.1974C62.3915 30.1253 61.8193 30.5429 60.8914 30.5429C59.9789 30.5429 59.3758 30.1253 59.0046 29.2129L53.0979 14.8856C53.0879 14.8613 53.0642 14.8455 53.0379 14.8455C53.0021 14.8455 52.9731 14.8745 52.9731 14.9103V29.0737C52.9731 30.2491 52.2926 30.945 51.1636 30.945Z" fill="#050B2B"/>
<path d="M82.6055 31.0069C77.5947 31.0069 74.6408 27.8674 74.6408 22.5473C74.6408 17.32 77.6565 13.9485 82.389 13.9485C86.8739 13.9485 89.9361 17.1344 89.9361 21.5884C89.9361 22.7329 89.2866 23.4133 88.1421 23.4133H78.5999C78.5316 23.4133 78.4762 23.4687 78.4762 23.5371C78.4762 26.2744 80.0692 28.0375 82.5746 28.0375C84.3067 28.0375 85.4357 27.4344 86.6729 25.8569C87.075 25.4084 87.4307 25.2383 87.972 25.2383C88.8381 25.2383 89.5185 25.795 89.5185 26.7229C89.5185 27.0168 89.4257 27.357 89.2556 27.6973C88.173 29.7851 85.7295 31.0069 82.6055 31.0069ZM78.7134 19.7209C78.6209 20.0255 78.5747 20.1778 78.6265 20.3688C78.6662 20.5151 78.7971 20.6915 78.9255 20.772C79.0932 20.877 79.29 20.877 79.6837 20.877H85.0245C85.4086 20.877 85.6007 20.877 85.7656 20.7766C85.8925 20.6994 86.0233 20.5305 86.0664 20.3885C86.1225 20.2037 86.0837 20.053 86.0061 19.7516C85.5587 18.0154 84.2066 16.9333 82.4044 16.9333C80.6168 16.9333 79.2298 18.0192 78.7134 19.7209Z" fill="#050B2B"/>
<path d="M97.9169 30.945C93.7876 30.945 91.1121 27.6818 91.1121 22.4699C91.1121 17.289 93.7876 14.0103 97.9169 14.0103C100.254 14.0103 102.101 15.2176 102.974 17.0092C102.984 17.0289 103.004 17.0416 103.025 17.0416C103.057 17.0416 103.082 17.0161 103.082 16.9846V10.0821C103.082 8.78303 103.871 8.05615 105 8.05615C106.129 8.05615 106.933 8.78303 106.933 10.0821V29.0582C106.933 30.2955 106.145 30.9914 105.031 30.9914C103.917 30.9914 103.082 30.3109 103.082 29.0582V27.821C103.082 27.7954 103.062 27.7746 103.036 27.7746C103.017 27.7746 103 27.7859 102.993 27.8031C102.198 29.6743 100.44 30.945 97.9169 30.945ZM99.0768 27.7901C101.505 27.7901 103.098 25.7332 103.098 22.4854C103.098 19.2686 101.505 17.1808 99.0768 17.1808C96.6023 17.1808 95.0558 19.2377 95.0558 22.4854C95.0558 25.7486 96.5869 27.7901 99.0768 27.7901Z" fill="#050B2B"/>
<path d="M123.885 30.945C122.647 30.945 121.905 30.1872 121.905 28.8726V22.2116C121.905 22.0891 121.905 22.0279 121.895 21.9687C121.885 21.9161 121.87 21.8648 121.849 21.8157C121.825 21.7605 121.791 21.7093 121.724 21.607L114.93 11.2575C114.652 10.809 114.528 10.376 114.528 9.92747C114.528 8.87582 115.379 8.10255 116.508 8.10255C117.343 8.10255 117.822 8.39639 118.333 9.26246L123.844 18.0384C123.86 18.0629 123.887 18.0778 123.916 18.0778C123.944 18.0778 123.971 18.0629 123.987 18.0385L129.514 9.26246C130.009 8.42732 130.504 8.10255 131.293 8.10255C132.406 8.10255 133.257 8.87582 133.257 9.91201C133.257 10.376 133.133 10.7935 132.839 11.2575L126.06 21.6073C125.993 21.7095 125.959 21.7606 125.936 21.8158C125.915 21.8648 125.899 21.916 125.89 21.9685C125.88 22.0276 125.88 22.0887 125.88 22.211V28.8726C125.88 30.1872 125.137 30.945 123.885 30.945Z" fill="#050B2B"/>
<path d="M139.088 31.0069C134.278 31.0069 131.154 27.8055 131.154 22.4854C131.154 17.1962 134.309 13.9485 139.088 13.9485C143.867 13.9485 147.022 17.1808 147.022 22.4854C147.022 27.8055 143.898 31.0069 139.088 31.0069ZM139.088 27.9602C141.531 27.9602 143.109 25.9806 143.109 22.4854C143.109 19.0057 141.531 17.0106 139.088 17.0106C136.66 17.0106 135.067 19.0057 135.067 22.4854C135.067 25.9806 136.644 27.9602 139.088 27.9602Z" fill="#050B2B"/>
<path d="M150.78 30.9914C149.62 30.9914 148.863 30.2336 148.863 28.9654V15.9126C148.863 14.7063 149.605 13.964 150.703 13.964C151.77 13.964 152.528 14.7063 152.528 15.9126V17.1222C152.528 17.146 152.547 17.1653 152.571 17.1653C152.591 17.1653 152.608 17.1513 152.613 17.1318C153.07 15.2332 154.486 14.0103 156.116 14.0103C156.719 14.0103 157.183 14.165 157.477 14.4279C157.833 14.7218 158.018 15.1857 158.018 15.8198C158.018 16.423 157.833 16.8715 157.446 17.1808C157.075 17.5055 156.502 17.6757 155.745 17.6911C153.549 17.7066 152.713 19.083 152.713 21.0781V28.9654C152.713 30.2336 151.94 30.9914 150.78 30.9914Z" fill="#050B2B"/>
<path d="M164.622 30.945C160.493 30.945 157.818 27.6818 157.818 22.4699C157.818 17.289 160.493 14.0103 164.622 14.0103C166.959 14.0103 168.807 15.2176 169.679 17.0092C169.689 17.0289 169.709 17.0416 169.731 17.0416C169.762 17.0416 169.788 17.0161 169.788 16.9846V10.0821C169.788 8.78303 170.577 8.05615 171.706 8.05615C172.835 8.05615 173.639 8.78303 173.639 10.0821V29.0582C173.639 30.2955 172.85 30.9914 171.737 30.9914C170.623 30.9914 169.788 30.3109 169.788 29.0582V27.821C169.788 27.7954 169.767 27.7746 169.741 27.7746C169.723 27.7746 169.706 27.7859 169.699 27.8031C168.904 29.6743 167.146 30.945 164.622 30.945ZM165.782 27.7901C168.21 27.7901 169.803 25.7332 169.803 22.4854C169.803 19.2686 168.21 17.1808 165.782 17.1808C163.308 17.1808 161.761 19.2377 161.761 22.4854C161.761 25.7486 163.292 27.7901 165.782 27.7901Z" fill="#050B2B"/>
<path d="M181.047 30.945C177.877 30.945 175.573 28.95 175.573 25.9961C175.573 23.0886 177.815 21.341 181.805 21.0935L185.112 20.9052C185.478 20.8844 185.66 20.874 185.799 20.7962C185.921 20.7277 186.02 20.6236 186.081 20.4977C186.151 20.3547 186.151 20.1716 186.151 19.8053V19.6707C186.151 17.954 184.991 16.9642 183.089 16.9642C181.589 16.9642 180.614 17.4746 179.655 18.882C179.253 19.4078 178.743 19.6552 178.093 19.6552C177.15 19.6552 176.47 19.0366 176.47 18.1087C176.47 17.753 176.562 17.4127 176.733 17.057C177.568 15.1548 180.104 13.9485 183.243 13.9485C187.311 13.9485 189.955 16.0982 189.955 19.3923V29.0582C189.955 30.2955 189.167 30.9914 188.084 30.9914C187.033 30.9914 186.306 30.3573 186.244 29.2129V28.1167C186.244 28.0901 186.222 28.0684 186.195 28.0684C186.178 28.0684 186.161 28.0783 186.153 28.0941C185.203 29.8575 183.156 30.945 181.047 30.945ZM182.223 28.0375C184.388 28.0375 186.151 26.5838 186.151 24.6042V24.5224C186.151 24.115 186.151 23.9113 186.07 23.7595C185.999 23.6261 185.886 23.5198 185.749 23.457C185.592 23.3855 185.389 23.3979 184.982 23.4227L182.346 23.5835C180.491 23.7072 179.423 24.5423 179.423 25.8414C179.423 27.1869 180.552 28.0375 182.223 28.0375Z" fill="#050B2B"/>
<path d="M194.348 30.9914C193.188 30.9914 192.431 30.2491 192.431 28.9654V15.9281C192.431 14.6754 193.188 13.964 194.271 13.964C195.354 13.964 196.127 14.6754 196.127 15.9281V17.0887C196.127 17.1139 196.147 17.1344 196.172 17.1344C196.191 17.1344 196.209 17.1224 196.215 17.1046C196.934 15.2191 198.659 13.9794 200.875 13.9794C203.177 13.9794 204.825 15.1525 205.439 17.2266C205.447 17.2542 205.472 17.2736 205.501 17.2736C205.528 17.2736 205.552 17.2571 205.561 17.2324C206.36 15.2304 208.299 13.9794 210.649 13.9794C213.881 13.9794 216 16.16 216 19.4387V28.9654C216 30.2491 215.227 30.9914 214.082 30.9914C212.922 30.9914 212.149 30.2491 212.149 28.9654V20.3821C212.149 18.3716 211.097 17.2272 209.211 17.2272C207.355 17.2272 206.087 18.5881 206.087 20.5522V28.9654C206.087 30.2491 205.36 30.9914 204.215 30.9914C203.055 30.9914 202.344 30.2491 202.344 28.9654V20.1811C202.344 18.3561 201.23 17.2272 199.436 17.2272C197.581 17.2272 196.281 18.6654 196.281 20.645V28.9654C196.281 30.2491 195.493 30.9914 194.348 30.9914Z" fill="#050B2B"/>
</g>
<defs>
<linearGradient id="paint0_linear_43_694" x1="13.8743" y1="-8.43705e-08" x2="21.7926" y2="39.0407" gradientUnits="userSpaceOnUse">
<stop stop-color="#1EFAF7"/>
<stop offset="0.43419" stop-color="#0586EB"/>
<stop offset="0.918967" stop-color="#0028E2"/>
</linearGradient>
<clipPath id="clip0_43_694">
<rect width="216" height="39.0407" fill="white"/>
</clipPath>
</defs>
</svg>
