<svg width="48" height="48" viewBox="0 0 48 48" fill="none" xmlns="http://www.w3.org/2000/svg">
<path d="M42 30C42 31.0609 41.5786 32.0783 40.8284 32.8284C40.0783 33.5786 39.0609 34 38 34H14L6 42V10C6 8.93913 6.42143 7.92172 7.17157 7.17157C7.92172 6.42143 8.93913 6 10 6H38C39.0609 6 40.0783 6.42143 40.8284 7.17157C41.5786 7.92172 42 8.93913 42 10V30Z" stroke="#0129E3" stroke-width="2.5" stroke-linecap="round" stroke-linejoin="round"/>
<path d="M29.5998 15C28.9099 14.3112 27.9748 13.9243 26.9998 13.9243C26.0249 13.9243 25.0898 14.3112 24.3998 15L23.9998 15.6L23.3998 15C23.0321 14.6848 22.606 14.4452 22.1456 14.2947C21.6853 14.1442 21.1999 14.0859 20.717 14.1231C20.2341 14.1602 19.7633 14.2921 19.3314 14.5112C18.8995 14.7303 18.515 15.0323 18.1998 15.4C17.8847 15.7677 17.645 16.1939 17.4945 16.6542C17.3441 17.1145 17.2857 17.6 17.3229 18.0829C17.36 18.5657 17.4919 19.0365 17.711 19.4684C17.9301 19.9003 18.2321 20.2848 18.5998 20.6L23.9998 26L29.3998 20.6C31.1998 18.8 30.9998 16.4 29.5998 15Z" stroke="#0129E3" stroke-width="2.5" stroke-linecap="round" stroke-linejoin="round"/>
</svg>
