<svg width="48" height="48" viewBox="0 0 48 48" fill="none" xmlns="http://www.w3.org/2000/svg">
<path d="M24 6H10C8.93913 6 7.92172 6.42143 7.17157 7.17157C6.42143 7.92172 6 8.93913 6 10V38C6 39.0609 6.42143 40.0783 7.17157 40.8284C7.92172 41.5786 8.93913 42 10 42H38C39.0609 42 40.0783 41.5786 40.8284 40.8284C41.5786 40.0783 42 39.0609 42 38V24" stroke="#0129E3" stroke-width="2.5" stroke-linecap="round" stroke-linejoin="round"/>
<path d="M36.7502 5.25003C37.5458 4.45438 38.625 4.00739 39.7502 4.00739C40.8754 4.00739 41.9545 4.45438 42.7502 5.25003C43.5458 6.04568 43.9928 7.12481 43.9928 8.25003C43.9928 9.37524 43.5458 10.4544 42.7502 11.25L24.7242 29.278C24.2493 29.7525 23.6626 30.0999 23.0182 30.288L17.2722 31.968C17.1001 32.0182 16.9177 32.0212 16.744 31.9767C16.5703 31.9322 16.4118 31.8419 16.2851 31.7151C16.1583 31.5884 16.068 31.4299 16.0235 31.2562C15.979 31.0825 15.982 30.9001 16.0322 30.728L17.7122 24.982C17.9012 24.3381 18.2493 23.7521 18.7242 23.278L36.7502 5.25003Z" stroke="#0129E3" stroke-width="2.5" stroke-linecap="round" stroke-linejoin="round"/>
</svg>
