<svg width="240" height="43" viewBox="0 0 240 43" fill="none" xmlns="http://www.w3.org/2000/svg">
<g clip-path="url(#clip0_43_1078)">
<path fill-rule="evenodd" clip-rule="evenodd" d="M15.2504 2.04686C14.8418 2.84876 14.8418 3.89852 14.8418 5.99802V14.842H5.99802C3.89852 14.842 2.84876 14.842 2.04686 15.2506C1.34148 15.61 0.767997 16.1835 0.408591 16.8889C0 17.6908 0 18.7406 0 20.8401V22.5385C0 24.638 0 25.6877 0.408591 26.4896C0.767997 27.195 1.34148 27.7685 2.04686 28.1279C2.84876 28.5365 3.89852 28.5365 5.99802 28.5365H14.8418V37.3805C14.8418 39.48 14.8418 40.5298 15.2504 41.3317C15.6098 42.0371 16.1833 42.6105 16.8887 42.9699C17.6906 43.3785 18.7404 43.3785 20.8399 43.3785H22.5383C24.6378 43.3785 25.6875 43.3785 26.4894 42.9699C27.1948 42.6105 27.7683 42.0371 28.1277 41.3317C28.5363 40.5298 28.5363 39.48 28.5363 37.3805V28.5365H37.3805C39.48 28.5365 40.5298 28.5365 41.3317 28.1279C42.0371 27.7685 42.6105 27.195 42.9699 26.4896C43.3785 25.6877 43.3785 24.638 43.3785 22.5385V20.8401C43.3785 18.7406 43.3785 17.6908 42.9699 16.8889C42.6105 16.1835 42.0371 15.61 41.3317 15.2506C40.5298 14.842 39.48 14.842 37.3805 14.842H28.5363V5.99802C28.5363 3.89852 28.5363 2.84876 28.1277 2.04686C27.7683 1.34148 27.1948 0.767997 26.4894 0.408591C25.6875 0 24.6378 0 22.5383 0H20.8399C18.7404 0 17.6906 0 16.8887 0.408591C16.1833 0.767997 15.6098 1.34148 15.2504 2.04686Z" fill="url(#paint0_linear_43_1078)"/>
<path d="M56.8488 34.3832C55.5944 34.3832 54.8555 33.61 54.8555 32.304V11.8209C54.8555 10.0681 55.938 9.00272 57.708 9.00272C59.2373 9.00272 60.1137 9.65571 60.7667 11.3054L67.5627 27.9444C67.5784 27.9829 67.6158 28.008 67.6574 28.008C67.699 28.008 67.7364 27.9828 67.7521 27.9443L74.5309 11.3054C75.1839 9.67289 76.0775 9.00272 77.624 9.00272C79.394 9.00272 80.4422 10.0509 80.4422 11.8209V32.304C80.4422 33.61 79.7033 34.3832 78.4489 34.3832C77.1944 34.3832 76.4555 33.61 76.4555 32.304V16.5669C76.4555 16.5271 76.4233 16.4949 76.3835 16.4949C76.3543 16.4949 76.328 16.5125 76.3168 16.5394L69.7538 32.4415C69.3242 33.4725 68.6884 33.9364 67.6574 33.9364C66.6436 33.9364 65.9734 33.4725 65.561 32.4586L58.998 16.5395C58.9868 16.5125 58.9605 16.4949 58.9314 16.4949C58.8916 16.4949 58.8593 16.5271 58.8593 16.5669V32.304C58.8593 33.61 58.1032 34.3832 56.8488 34.3832Z" fill="white"/>
<path d="M91.7842 34.452C86.2166 34.452 82.9345 30.9636 82.9345 25.0524C82.9345 19.2443 86.2854 15.4982 91.5436 15.4982C96.5269 15.4982 99.9293 19.0381 99.9293 23.987C99.9293 25.2586 99.2076 26.0147 97.936 26.0147H87.3336C87.2577 26.0147 87.1961 26.0763 87.1961 26.1522C87.1961 29.1937 88.966 31.1527 91.7498 31.1527C93.6744 31.1527 94.9288 30.4825 96.3035 28.7297C96.7503 28.2314 97.1455 28.0424 97.747 28.0424C98.7093 28.0424 99.4654 28.661 99.4654 29.692C99.4654 30.0185 99.3622 30.3966 99.1732 30.7746C97.9704 33.0944 95.2553 34.452 91.7842 34.452ZM87.4596 21.9119C87.3569 22.2505 87.3056 22.4197 87.3631 22.6319C87.4073 22.7944 87.5526 22.9904 87.6953 23.0799C87.8816 23.1966 88.1003 23.1966 88.5377 23.1966H94.472C94.8988 23.1966 95.1122 23.1966 95.2955 23.085C95.4364 22.9992 95.5818 22.8116 95.6297 22.6537C95.692 22.4484 95.6489 22.281 95.5626 21.9461C95.0655 20.017 93.5632 18.8147 91.5608 18.8147C89.5746 18.8147 88.0334 20.0212 87.4596 21.9119Z" fill="white"/>
<path d="M108.797 34.3832C104.209 34.3832 101.236 30.7574 101.236 24.9665C101.236 19.2099 104.209 15.5669 108.797 15.5669C111.393 15.5669 113.446 16.9083 114.416 18.899C114.426 18.9209 114.449 18.935 114.473 18.935C114.508 18.935 114.536 18.9067 114.536 18.8717V11.2023C114.536 9.75881 115.413 8.95117 116.667 8.95117C117.921 8.95117 118.815 9.75881 118.815 11.2023V32.2868C118.815 33.6615 117.939 34.4348 116.701 34.4348C115.464 34.4348 114.536 33.6787 114.536 32.2868V30.9121C114.536 30.8836 114.513 30.8605 114.485 30.8605C114.464 30.8605 114.445 30.8731 114.437 30.8923C113.554 32.9713 111.601 34.3832 108.797 34.3832ZM110.086 30.8777C112.784 30.8777 114.553 28.5923 114.553 24.9837C114.553 21.4094 112.784 19.0896 110.086 19.0896C107.336 19.0896 105.618 21.3751 105.618 24.9837C105.618 28.6095 107.319 30.8777 110.086 30.8777Z" fill="white"/>
<path d="M137.65 34.3832C136.275 34.3832 135.45 33.5412 135.45 32.0806V24.6794C135.45 24.5434 135.45 24.4754 135.439 24.4095C135.428 24.3511 135.411 24.2941 135.388 24.2396C135.362 24.1782 135.324 24.1213 135.25 24.0076L127.7 12.5082C127.391 12.0099 127.254 11.5287 127.254 11.0304C127.254 9.86191 128.199 9.00272 129.453 9.00272C130.381 9.00272 130.914 9.32922 131.481 10.2915L137.605 20.0426C137.622 20.0698 137.652 20.0863 137.684 20.0863C137.716 20.0863 137.746 20.0698 137.763 20.0427L143.905 10.2915C144.455 9.36358 145.005 9.00272 145.881 9.00272C147.118 9.00272 148.063 9.86191 148.063 11.0132C148.063 11.5287 147.926 11.9927 147.599 12.5082L140.067 24.008C139.992 24.1216 139.955 24.1784 139.929 24.2397C139.905 24.2941 139.888 24.351 139.878 24.4093C139.867 24.475 139.867 24.5429 139.867 24.6787V32.0806C139.867 33.5412 139.042 34.3832 137.65 34.3832Z" fill="white"/>
<path d="M154.542 34.452C149.198 34.452 145.727 30.8949 145.727 24.9837C145.727 19.1068 149.232 15.4982 154.542 15.4982C159.852 15.4982 163.358 19.0896 163.358 24.9837C163.358 30.8949 159.886 34.452 154.542 34.452ZM154.542 31.0667C157.257 31.0667 159.01 28.8672 159.01 24.9837C159.01 21.1173 157.257 18.9006 154.542 18.9006C151.844 18.9006 150.074 21.1173 150.074 24.9837C150.074 28.8672 151.827 31.0667 154.542 31.0667Z" fill="white"/>
<path d="M167.534 34.4348C166.245 34.4348 165.403 33.5928 165.403 32.1837V17.6806C165.403 16.3402 166.228 15.5154 167.448 15.5154C168.634 15.5154 169.476 16.3402 169.476 17.6806V19.0245C169.476 19.051 169.497 19.0724 169.524 19.0724C169.546 19.0724 169.565 19.0569 169.57 19.0353C170.078 16.9257 171.651 15.5669 173.462 15.5669C174.132 15.5669 174.648 15.7388 174.975 16.0309C175.37 16.3574 175.576 16.8729 175.576 17.5774C175.576 18.2476 175.37 18.7459 174.94 19.0896C174.528 19.4505 173.892 19.6395 173.05 19.6567C170.61 19.6739 169.682 21.2032 169.682 23.4199V32.1837C169.682 33.5928 168.823 34.4348 167.534 34.4348Z" fill="white"/>
<path d="M182.914 34.3832C178.326 34.3832 175.353 30.7574 175.353 24.9665C175.353 19.2099 178.326 15.5669 182.914 15.5669C185.51 15.5669 187.563 16.9083 188.533 18.899C188.544 18.9209 188.566 18.935 188.59 18.935C188.625 18.935 188.654 18.9067 188.654 18.8717V11.2023C188.654 9.75881 189.53 8.95117 190.784 8.95117C192.039 8.95117 192.932 9.75881 192.932 11.2023V32.2868C192.932 33.6615 192.056 34.4348 190.819 34.4348C189.581 34.4348 188.654 33.6787 188.654 32.2868V30.9121C188.654 30.8836 188.63 30.8605 188.602 30.8605C188.581 30.8605 188.562 30.8731 188.554 30.8923C187.671 32.9713 185.718 34.3832 182.914 34.3832ZM184.203 30.8777C186.901 30.8777 188.671 28.5923 188.671 24.9837C188.671 21.4094 186.901 19.0896 184.203 19.0896C181.453 19.0896 179.735 21.3751 179.735 24.9837C179.735 28.6095 181.436 30.8777 184.203 30.8777Z" fill="white"/>
<path d="M201.164 34.3832C197.641 34.3832 195.081 32.1665 195.081 28.8844C195.081 25.6538 197.573 23.7121 202.006 23.4371L205.68 23.2279C206.086 23.2048 206.29 23.1932 206.444 23.1068C206.58 23.0306 206.689 22.9149 206.757 22.7751C206.835 22.6162 206.835 22.4128 206.835 22.0058V21.8562C206.835 19.9488 205.546 18.8491 203.432 18.8491C201.765 18.8491 200.683 19.4161 199.617 20.9798C199.171 21.5641 198.604 21.839 197.882 21.839C196.834 21.839 196.078 21.1517 196.078 20.1207C196.078 19.7254 196.181 19.3474 196.37 18.9522C197.298 16.8385 200.116 15.4982 203.604 15.4982C208.123 15.4982 211.062 17.8868 211.062 21.5469V32.2868C211.062 33.6615 210.186 34.4348 208.983 34.4348C207.814 34.4348 207.007 33.7302 206.938 32.4586V31.2407C206.938 31.2111 206.914 31.187 206.884 31.187C206.864 31.187 206.846 31.198 206.837 31.2155C205.782 33.1749 203.507 34.3832 201.164 34.3832ZM202.47 31.1527C204.876 31.1527 206.835 29.5374 206.835 27.3379V27.247C206.835 26.7943 206.835 26.568 206.745 26.3994C206.666 26.2512 206.54 26.133 206.388 26.0632C206.214 25.9838 205.988 25.9976 205.536 26.0252L202.607 26.2037C200.545 26.3412 199.36 27.2691 199.36 28.7126C199.36 30.2076 200.614 31.1527 202.47 31.1527Z" fill="white"/>
<path d="M215.943 34.4348C214.654 34.4348 213.812 33.61 213.812 32.1837V17.6977C213.812 16.3058 214.654 15.5154 215.857 15.5154C217.06 15.5154 217.919 16.3058 217.919 17.6977V18.9873C217.919 19.0154 217.942 19.0381 217.97 19.0381C217.991 19.0381 218.01 19.0248 218.017 19.005C218.815 16.91 220.733 15.5326 223.194 15.5326C225.753 15.5326 227.583 16.836 228.266 19.1405C228.275 19.1712 228.303 19.1927 228.335 19.1927C228.364 19.1927 228.391 19.1744 228.402 19.147C229.29 16.9226 231.443 15.5326 234.055 15.5326C237.646 15.5326 240 17.9555 240 21.5985V32.1837C240 33.61 239.141 34.4348 237.869 34.4348C236.581 34.4348 235.721 33.61 235.721 32.1837V22.6467C235.721 20.4128 234.553 19.1412 232.456 19.1412C230.394 19.1412 228.985 20.6534 228.985 22.8357V32.1837C228.985 33.61 228.178 34.4348 226.906 34.4348C225.617 34.4348 224.827 33.61 224.827 32.1837V22.4233C224.827 20.3956 223.59 19.1412 221.596 19.1412C219.534 19.1412 218.091 20.7393 218.091 22.9388V32.1837C218.091 33.61 217.214 34.4348 215.943 34.4348Z" fill="white"/>
</g>
<defs>
<linearGradient id="paint0_linear_43_1078" x1="15.4158" y1="-9.3745e-08" x2="24.2139" y2="43.3785" gradientUnits="userSpaceOnUse">
<stop stop-color="#1EFAF7"/>
<stop offset="0.43419" stop-color="#0586EB"/>
<stop offset="0.918967" stop-color="#0028E2"/>
</linearGradient>
<clipPath id="clip0_43_1078">
<rect width="240" height="43" fill="white"/>
</clipPath>
</defs>
</svg>
