<svg width="32" height="32" viewBox="0 0 32 32" fill="none" xmlns="http://www.w3.org/2000/svg">
<path d="M13.3333 13.3333H8" stroke="white" stroke-width="3.33333" stroke-linecap="round" stroke-linejoin="round"/>
<path d="M18.6665 24V8C18.6665 7.29276 18.3856 6.61448 17.8855 6.11438C17.3854 5.61428 16.7071 5.33333 15.9998 5.33333H5.33317C4.62593 5.33333 3.94765 5.61428 3.44755 6.11438C2.94746 6.61448 2.6665 7.29276 2.6665 8V22.6667C2.6665 23.0203 2.80698 23.3594 3.05703 23.6095C3.30708 23.8595 3.64622 24 3.99984 24H6.6665" stroke="white" stroke-width="3.33333" stroke-linecap="round" stroke-linejoin="round"/>
<path d="M25.3332 24H27.9998C28.3535 24 28.6926 23.8595 28.9426 23.6095C29.1927 23.3594 29.3332 23.0203 29.3332 22.6667V18.2933C29.333 18.0136 29.2448 17.741 29.0811 17.5142C28.9174 17.2873 28.6866 17.1177 28.4212 17.0293L25.8572 16.1747C25.691 16.1192 25.5375 16.0315 25.4053 15.9167C25.273 15.8018 25.1647 15.662 25.0865 15.5053L23.0345 11.404C22.9238 11.1826 22.7537 10.9963 22.5432 10.8661C22.3327 10.7358 22.0901 10.6668 21.8425 10.6667H18.6665" stroke="white" stroke-width="3.33333" stroke-linecap="round" stroke-linejoin="round"/>
<path d="M10.6665 10.6667V16" stroke="white" stroke-width="3.33333" stroke-linecap="round" stroke-linejoin="round"/>
<path d="M12 24H20" stroke="white" stroke-width="3.33333" stroke-linecap="round" stroke-linejoin="round"/>
<path d="M22.6667 26.6667C24.1394 26.6667 25.3333 25.4728 25.3333 24C25.3333 22.5272 24.1394 21.3333 22.6667 21.3333C21.1939 21.3333 20 22.5272 20 24C20 25.4728 21.1939 26.6667 22.6667 26.6667Z" stroke="white" stroke-width="3.33333" stroke-linecap="round" stroke-linejoin="round"/>
<path d="M9.33317 26.6667C10.8059 26.6667 11.9998 25.4728 11.9998 24C11.9998 22.5272 10.8059 21.3333 9.33317 21.3333C7.86041 21.3333 6.6665 22.5272 6.6665 24C6.6665 25.4728 7.86041 26.6667 9.33317 26.6667Z" stroke="white" stroke-width="3.33333" stroke-linecap="round" stroke-linejoin="round"/>
</svg>
