<svg width="32" height="32" viewBox="0 0 32 32" fill="none" xmlns="http://www.w3.org/2000/svg">
<path d="M25.3332 18.6667C27.3198 16.72 29.3332 14.3867 29.3332 11.3333C29.3332 9.38841 28.5606 7.52315 27.1853 6.14788C25.81 4.77262 23.9448 4 21.9998 4C19.6532 4 17.9998 4.66667 15.9998 6.66667C13.9998 4.66667 12.3465 4 9.99984 4C8.05492 4 6.18965 4.77262 4.81439 6.14788C3.43912 7.52315 2.6665 9.38841 2.6665 11.3333C2.6665 14.4 4.6665 16.7333 6.6665 18.6667L15.9998 28L25.3332 18.6667Z" stroke="white" stroke-width="3.33333" stroke-linecap="round" stroke-linejoin="round"/>
<path d="M4.29346 16H12.6668L13.3335 14.6667L16.0001 20.6667L18.6668 11.3333L20.6668 16H27.6935" stroke="white" stroke-width="3.33333" stroke-linecap="round" stroke-linejoin="round"/>
</svg>
