<svg width="32" height="32" viewBox="0 0 32 32" fill="none" xmlns="http://www.w3.org/2000/svg">
<path d="M5.33317 12C4.62593 12 3.94765 12.2809 3.44755 12.781C2.94746 13.2811 2.6665 13.9594 2.6665 14.6667V17.3333C2.6665 18.0406 2.94746 18.7189 3.44755 19.2189C3.94765 19.719 4.62593 20 5.33317 20H10.6665C11.0201 20 11.3593 20.1405 11.6093 20.3905C11.8594 20.6406 11.9998 20.9797 11.9998 21.3333V26.6667C11.9998 27.3739 12.2808 28.0522 12.7809 28.5523C13.281 29.0524 13.9593 29.3333 14.6665 29.3333H17.3332C18.0404 29.3333 18.7187 29.0524 19.2188 28.5523C19.7189 28.0522 19.9998 27.3739 19.9998 26.6667V21.3333C19.9998 20.9797 20.1403 20.6406 20.3904 20.3905C20.6404 20.1405 20.9795 20 21.3332 20H26.6665C27.3737 20 28.052 19.719 28.5521 19.2189C29.0522 18.7189 29.3332 18.0406 29.3332 17.3333V14.6667C29.3332 13.9594 29.0522 13.2811 28.5521 12.781C28.052 12.2809 27.3737 12 26.6665 12H21.3332C20.9795 12 20.6404 11.8595 20.3904 11.6095C20.1403 11.3594 19.9998 11.0203 19.9998 10.6667V5.33333C19.9998 4.62609 19.7189 3.94781 19.2188 3.44771C18.7187 2.94762 18.0404 2.66666 17.3332 2.66666H14.6665C13.9593 2.66666 13.281 2.94762 12.7809 3.44771C12.2808 3.94781 11.9998 4.62609 11.9998 5.33333V10.6667C11.9998 11.0203 11.8594 11.3594 11.6093 11.6095C11.3593 11.8595 11.0201 12 10.6665 12H5.33317Z" stroke="white" stroke-width="3.33333" stroke-linecap="round" stroke-linejoin="round"/>
</svg>
