<svg width="48" height="48" viewBox="0 0 48 48" fill="none" xmlns="http://www.w3.org/2000/svg">
<path d="M4.12403 24.696C3.95735 24.247 3.95735 23.753 4.12403 23.304C5.74743 19.3677 8.50306 16.0021 12.0416 13.6338C15.5801 11.2655 19.7421 10.0012 24 10.0012C28.2579 10.0012 32.42 11.2655 35.9585 13.6338C39.497 16.0021 42.2526 19.3677 43.876 23.304C44.0427 23.753 44.0427 24.247 43.876 24.696C42.2526 28.6323 39.497 31.9979 35.9585 34.3662C32.42 36.7345 28.2579 37.9988 24 37.9988C19.7421 37.9988 15.5801 36.7345 12.0416 34.3662C8.50306 31.9979 5.74743 28.6323 4.12403 24.696Z" stroke="#1EFAF7" stroke-width="2.66667" stroke-linecap="round" stroke-linejoin="round"/>
<path d="M24 30C27.3137 30 30 27.3137 30 24C30 20.6863 27.3137 18 24 18C20.6863 18 18 20.6863 18 24C18 27.3137 20.6863 30 24 30Z" stroke="#1EFAF7" stroke-width="2.66667" stroke-linecap="round" stroke-linejoin="round"/>
</svg>
