<svg width="48" height="48" viewBox="0 0 48 48" fill="none" xmlns="http://www.w3.org/2000/svg">
<path d="M24.44 4H23.56C22.4991 4 21.4817 4.42143 20.7316 5.17157C19.9814 5.92172 19.56 6.93913 19.56 8V8.36C19.5593 9.06145 19.3741 9.75038 19.0231 10.3577C18.672 10.965 18.1675 11.4693 17.56 11.82L16.7 12.32C16.0919 12.6711 15.4022 12.8559 14.7 12.8559C13.9979 12.8559 13.3081 12.6711 12.7 12.32L12.4 12.16C11.4821 11.6305 10.3917 11.4869 9.36801 11.7606C8.34434 12.0343 7.47111 12.7031 6.94 13.62L6.5 14.38C5.97053 15.2979 5.82689 16.3883 6.10062 17.412C6.37435 18.4357 7.04308 19.3089 7.96 19.84L8.26 20.04C8.86456 20.389 9.36724 20.8902 9.71811 21.4937C10.069 22.0971 10.2558 22.7819 10.26 23.48V24.5C10.2628 25.2048 10.0793 25.8979 9.72809 26.509C9.37688 27.1201 8.87042 27.6276 8.26 27.98L7.96 28.16C7.04308 28.6911 6.37435 29.5643 6.10062 30.588C5.82689 31.6117 5.97053 32.7021 6.5 33.62L6.94 34.38C7.47111 35.2969 8.34434 35.9657 9.36801 36.2394C10.3917 36.5131 11.4821 36.3695 12.4 35.84L12.7 35.68C13.3081 35.3289 13.9979 35.1441 14.7 35.1441C15.4022 35.1441 16.0919 35.3289 16.7 35.68L17.56 36.18C18.1675 36.5307 18.672 37.035 19.0231 37.6423C19.3741 38.2496 19.5593 38.9385 19.56 39.64V40C19.56 41.0609 19.9814 42.0783 20.7316 42.8284C21.4817 43.5786 22.4991 44 23.56 44H24.44C25.5009 44 26.5183 43.5786 27.2684 42.8284C28.0186 42.0783 28.44 41.0609 28.44 40V39.64C28.4407 38.9385 28.6259 38.2496 28.9769 37.6423C29.328 37.035 29.8325 36.5307 30.44 36.18L31.3 35.68C31.9081 35.3289 32.5979 35.1441 33.3 35.1441C34.0021 35.1441 34.6919 35.3289 35.3 35.68L35.6 35.84C36.5179 36.3695 37.6083 36.5131 38.632 36.2394C39.6557 35.9657 40.5289 35.2969 41.06 34.38L41.5 33.6C42.0295 32.6821 42.1731 31.5917 41.8994 30.568C41.6257 29.5443 40.9569 28.6711 40.04 28.14L39.74 27.98C39.1296 27.6276 38.6231 27.1201 38.2719 26.509C37.9207 25.8979 37.7372 25.2048 37.74 24.5V23.5C37.7372 22.7952 37.9207 22.1021 38.2719 21.491C38.6231 20.8799 39.1296 20.3724 39.74 20.02L40.04 19.84C40.9569 19.3089 41.6257 18.4357 41.8994 17.412C42.1731 16.3883 42.0295 15.2979 41.5 14.38L41.06 13.62C40.5289 12.7031 39.6557 12.0343 38.632 11.7606C37.6083 11.4869 36.5179 11.6305 35.6 12.16L35.3 12.32C34.6919 12.6711 34.0021 12.8559 33.3 12.8559C32.5979 12.8559 31.9081 12.6711 31.3 12.32L30.44 11.82C29.8325 11.4693 29.328 10.965 28.9769 10.3577C28.6259 9.75038 28.4407 9.06145 28.44 8.36V8C28.44 6.93913 28.0186 5.92172 27.2684 5.17157C26.5183 4.42143 25.5009 4 24.44 4Z" stroke="#1EFAF7" stroke-width="2" stroke-linecap="round" stroke-linejoin="round"/>
<path d="M24 30C27.3137 30 30 27.3137 30 24C30 20.6863 27.3137 18 24 18C20.6863 18 18 20.6863 18 24C18 27.3137 20.6863 30 24 30Z" stroke="#1EFAF7" stroke-width="2" stroke-linecap="round" stroke-linejoin="round"/>
</svg>
