<svg width="40" height="40" viewBox="0 0 40 40" fill="none" xmlns="http://www.w3.org/2000/svg">
<path d="M33.3332 16.6667C33.3332 24.9884 24.1015 33.655 21.0015 36.3317C20.7127 36.5489 20.3612 36.6663 19.9998 36.6663C19.6385 36.6663 19.287 36.5489 18.9982 36.3317C15.8982 33.655 6.6665 24.9884 6.6665 16.6667C6.6665 13.1305 8.07126 9.7391 10.5717 7.23862C13.0722 4.73813 16.4636 3.33337 19.9998 3.33337C23.5361 3.33337 26.9274 4.73813 29.4279 7.23862C31.9284 9.7391 33.3332 13.1305 33.3332 16.6667Z" stroke="#0129E3" stroke-width="2.08333" stroke-linecap="round" stroke-linejoin="round"/>
<path d="M20 21.6666C22.7614 21.6666 25 19.428 25 16.6666C25 13.9052 22.7614 11.6666 20 11.6666C17.2386 11.6666 15 13.9052 15 16.6666C15 19.428 17.2386 21.6666 20 21.6666Z" stroke="#0129E3" stroke-width="2.08333" stroke-linecap="round" stroke-linejoin="round"/>
</svg>
