<svg width="40" height="40" viewBox="0 0 40 40" fill="none" xmlns="http://www.w3.org/2000/svg">
<path d="M36.6668 21.6666V9.99996C36.6668 9.1159 36.3156 8.26806 35.6905 7.64294C35.0654 7.01782 34.2176 6.66663 33.3335 6.66663H6.66683C5.78277 6.66663 4.93493 7.01782 4.30981 7.64294C3.68469 8.26806 3.3335 9.1159 3.3335 9.99996V30C3.3335 31.8333 4.8335 33.3333 6.66683 33.3333H20.0002" stroke="#0129E3" stroke-width="2.08333" stroke-linecap="round" stroke-linejoin="round"/>
<path d="M36.6668 11.6667L21.7168 21.1667C21.2023 21.4891 20.6074 21.6601 20.0002 21.6601C19.393 21.6601 18.798 21.4891 18.2835 21.1667L3.3335 11.6667" stroke="#0129E3" stroke-width="2.08333" stroke-linecap="round" stroke-linejoin="round"/>
<path d="M26.6665 31.6666L29.9998 34.9999L36.6665 28.3333" stroke="#0129E3" stroke-width="2.08333" stroke-linecap="round" stroke-linejoin="round"/>
</svg>
