<svg width="40" height="40" viewBox="0 0 40 40" fill="none" xmlns="http://www.w3.org/2000/svg">
<path d="M22.3332 3.33337H9.99984C9.11578 3.33337 8.26794 3.68456 7.64281 4.30968C7.01769 4.93481 6.6665 5.78265 6.6665 6.66671V33.3334C6.6665 34.2174 7.01769 35.0653 7.64281 35.6904C8.26794 36.3155 9.11578 36.6667 9.99984 36.6667H29.9998C30.8839 36.6667 31.7317 36.3155 32.3569 35.6904C32.982 35.0653 33.3332 34.2174 33.3332 33.3334V21" stroke="#0129E3" stroke-width="2.5" stroke-linecap="round" stroke-linejoin="round"/>
<path d="M3.3335 10H10.0002" stroke="#0129E3" stroke-width="2.5" stroke-linecap="round" stroke-linejoin="round"/>
<path d="M3.3335 16.6666H10.0002" stroke="#0129E3" stroke-width="2.5" stroke-linecap="round" stroke-linejoin="round"/>
<path d="M3.3335 23.3334H10.0002" stroke="#0129E3" stroke-width="2.5" stroke-linecap="round" stroke-linejoin="round"/>
<path d="M3.3335 30H10.0002" stroke="#0129E3" stroke-width="2.5" stroke-linecap="round" stroke-linejoin="round"/>
<path d="M35.6298 9.37671C36.2937 8.71279 36.6667 7.81231 36.6667 6.87338C36.6667 5.93445 36.2937 5.03397 35.6298 4.37004C34.9659 3.70612 34.0654 3.33313 33.1265 3.33313C32.1875 3.33313 31.2871 3.70612 30.6231 4.37004L22.2731 12.7234C21.8769 13.1194 21.5868 13.6089 21.4298 14.1467L20.0348 18.93C19.993 19.0735 19.9905 19.2255 20.0275 19.3702C20.0646 19.5149 20.1399 19.647 20.2455 19.7526C20.3512 19.8583 20.4833 19.9336 20.628 19.9706C20.7727 20.0077 20.9247 20.0052 21.0681 19.9634L25.8515 18.5684C26.3892 18.4113 26.8788 18.1213 27.2748 17.725L35.6298 9.37671Z" stroke="#0129E3" stroke-width="2.5" stroke-linecap="round" stroke-linejoin="round"/>
</svg>
