<svg width="40" height="40" viewBox="0 0 40 40" fill="none" xmlns="http://www.w3.org/2000/svg">
<path d="M13.1668 33.3334C16.3478 34.9651 20.007 35.4071 23.485 34.5797C26.963 33.7522 30.0311 31.7098 32.1364 28.8203C34.2418 25.9309 35.2459 22.3846 34.9678 18.8203C34.6897 15.2561 33.1478 11.9083 30.6198 9.38036C28.0919 6.8524 24.7441 5.31046 21.1799 5.0324C17.6156 4.75434 14.0693 5.75845 11.1799 7.86378C8.29044 9.96911 6.24798 13.0372 5.42053 16.5152C4.59309 19.9932 5.03507 23.6524 6.66683 26.8334L3.3335 36.6667L13.1668 33.3334Z" stroke="#0129E3" stroke-width="2.08333" stroke-linecap="round" stroke-linejoin="round"/>
<path d="M13.3335 20H13.3502" stroke="#0129E3" stroke-width="2.08333" stroke-linecap="round" stroke-linejoin="round"/>
<path d="M20 20H20.0167" stroke="#0129E3" stroke-width="2.08333" stroke-linecap="round" stroke-linejoin="round"/>
<path d="M26.6665 20H26.6832" stroke="#0129E3" stroke-width="2.08333" stroke-linecap="round" stroke-linejoin="round"/>
</svg>
